<?xml version="1.0" encoding="UTF-8"?><svg id="Layer_1" xmlns="http://www.w3.org/2000/svg" viewBox="0 0 120 100"><defs><style>.cls-1{fill:#4c4c4c;}.cls-2{fill:#fff;font-family:Montserrat-Bold, Montserrat;font-size:24px;}.cls-3{fill:#333;}</style></defs><path class="cls-3" d="M5,40h30c2.76,0,5,2.24,5,5v55H0V45c0-2.76,2.24-5,5-5Z"/><path class="cls-3" d="M85,60h30c2.76,0,5,2.24,5,5v35h-40v-35c0-2.76,2.24-5,5-5Z"/><path class="cls-1" d="M45,20h30c2.76,0,5,2.24,5,5V100H40V25c0-2.76,2.24-5,5-5Z"/><text class="cls-2" transform="translate(92.93 57.42)"><tspan x="0" y="0">?</tspan></text><text class="cls-2" transform="translate(12.93 37.42)"><tspan x="0" y="0">?</tspan></text><text class="cls-2" transform="translate(52.93 17.42)"><tspan x="0" y="0">?</tspan></text></svg>